<svg xmlns="http://www.w3.org/2000/svg" xmlns:xlink="http://www.w3.org/1999/xlink" width="124" height="97.118" viewBox="0 0 124 97.118">
  <defs>
    <clipPath id="clip-path">
      <path id="Path_367" data-name="Path 367" d="M0-206.691H124v-97.118H0Z" transform="translate(0 303.809)" fill="none"/>
    </clipPath>
  </defs>
  <g id="Group_175" data-name="Group 175" transform="translate(0 303.809)">
    <g id="Group_174" data-name="Group 174" transform="translate(0 -303.809)" clip-path="url(#clip-path)">
      <g id="Group_138" data-name="Group 138" transform="translate(8.379 11.131)">
        <path id="Path_331" data-name="Path 331" d="M-91.038-171.426c-15.013,1.107-28.092-8.06-36.29-22.655-3.375-6.042-5.208-13.15-6.118-20.813a53.965,53.965,0,0,1,9.252-37.032c.025-.046.043-.065.059-.029a.587.587,0,0,0,.166.076c.055.018.066-.009.043.056-7.673,10.763-10.831,25.934-8.487,40.091,3.263,20.225,16.806,35.872,32.709,38.848a32.948,32.948,0,0,0,8.161.58,1.614,1.614,0,0,1,.506.878" transform="translate(133.813 251.974)" fill="#fff"/>
      </g>
      <g id="Group_139" data-name="Group 139" transform="translate(1.42 57.302)">
        <path id="Path_332" data-name="Path 332" d="M-13.2-18.581c1.5,1.16,3.687,2.14,5.615,1.166.136.14.849.805.948.909.122.13.326.237.433.083a.267.267,0,0,0-.01-.366c-.374-.307-.753-.618-1.177-.94A14.849,14.849,0,0,0-12.3-24.461a13.607,13.607,0,0,0-6.5-2.81c-.212-.015-.4-.026-.606-.042a9.764,9.764,0,0,0,1.746,3.856A19.786,19.786,0,0,0-13.2-18.581" transform="translate(19.401 27.312)" fill="#fff"/>
      </g>
      <g id="Group_140" data-name="Group 140" transform="translate(14.284 12.296)">
        <path id="Path_333" data-name="Path 333" d="M-2.738-11.164c-.151.1-1.089.575-1.255.4-.054-.048-.039-.253.044-.286.354-.116.754-.231,1.09-.378A5.1,5.1,0,0,1,.506-15.524c1.879-.814,4.172-.675,6.558-.848a2.335,2.335,0,0,0,.368-.038,1.116,1.116,0,0,1-.1.237,10.028,10.028,0,0,1-3.295,3.982A8.287,8.287,0,0,1,.814-10.862a6.128,6.128,0,0,1-3.552-.3" transform="translate(4.025 16.41)" fill="#fff"/>
      </g>
      <g id="Group_141" data-name="Group 141" transform="translate(18.041 0)">
        <path id="Path_334" data-name="Path 334" d="M-.39-23.893c.084.012.083-.013.205-.13.225-.315.423-.523.648-.838a7.99,7.99,0,0,0,4.179-2.352A9.247,9.247,0,0,0,6.091-29.13a12.724,12.724,0,0,0,1.631-5.7,1.587,1.587,0,0,0-.01-.285c-.105.073-.2.149-.306.227-2.327,1.56-4.679,2.561-6.3,4.97a5.124,5.124,0,0,0-.86,4.851,11.811,11.811,0,0,0-.779.977c-.122.137.061.213.142.2" transform="translate(0.573 35.119)" fill="#fff"/>
      </g>
      <g id="Group_142" data-name="Group 142" transform="translate(10.726 19.623)">
        <path id="Path_335" data-name="Path 335" d="M-2.654-15.986c-.149.128-1.006.829-1.182.7-.074-.048-.092-.267-.011-.319.326-.212.731-.388,1.039-.615A4.793,4.793,0,0,1-1.08-20.43c2.145-1.8,4.948-2.175,7.487-2.96.129-.038.242-.072.355-.107-.022.08-.047.161-.062.245a12.8,12.8,0,0,1-2.836,4.806A9.529,9.529,0,0,1,.845-16.381a6.164,6.164,0,0,1-3.5.4" transform="translate(3.9 23.497)" fill="#fff"/>
      </g>
      <g id="Group_143" data-name="Group 143" transform="translate(0 41.52)">
        <path id="Path_336" data-name="Path 336" d="M-8.508-21.94c1.167,1.592,2.992,3.231,5.084,2.918.1.165.663.936.746,1.059.082.173.255.348.409.225a.289.289,0,0,0,.073-.347c-.3-.433-.625-.748-.96-1.179a16.215,16.215,0,0,0-3.019-8.012,14.741,14.741,0,0,0-5.772-4.73,4.15,4.15,0,0,0-.56-.241,14.612,14.612,0,0,0,.909,4.33A22.9,22.9,0,0,0-8.508-21.94" transform="translate(12.506 32.249)" fill="#fff"/>
      </g>
      <g id="Group_144" data-name="Group 144" transform="translate(1.752 27.369)">
        <path id="Path_337" data-name="Path 337" d="M-3.778-23.295c.747,1.808,2,3.528,4.062,3.942.063.193.474,1.062.532,1.2.042.193.154.4.339.335a.256.256,0,0,0,.14-.3c-.183-.474-.447-1.008-.66-1.525a21.014,21.014,0,0,0-.561-6.8,13.884,13.884,0,0,0-4.936-7.4c-.174-.133-.325-.272-.483-.394a14.143,14.143,0,0,0-.091,4.253,26.432,26.432,0,0,0,1.659,6.693" transform="translate(5.554 34.24)" fill="#fff"/>
      </g>
      <g id="Group_145" data-name="Group 145" transform="translate(5.372 14.62)">
        <path id="Path_338" data-name="Path 338" d="M-.766-22.984c.368,1.95,1.293,4.016,3.2,4.917.028.195.2,1.147.213,1.279.01.183.075.411.266.41.069-.009.181-.048.185-.246-.069-.5-.212-1.243-.3-1.778a15.732,15.732,0,0,0,.482-8.307A14.713,14.713,0,0,0,.338-33.3c-.128-.164-.257-.328-.386-.487a12.388,12.388,0,0,0-.96,4.011,25.336,25.336,0,0,0,.242,6.789" transform="translate(1.126 33.784)" fill="#fff"/>
      </g>
      <g id="Group_146" data-name="Group 146" transform="translate(10.594 3.268)">
        <path id="Path_339" data-name="Path 339" d="M-.027-20.789c-.034,1.905.662,4.55,2.252,5.353,0,.246.058,1.084.081,1.261-.007.2-.01.405.161.444.071.01.119,0,.161-.186-.022-.523-.085-.959-.11-1.5a13.941,13.941,0,0,0,2.17-7.662,19,19,0,0,0-1.213-6.913,5.585,5.585,0,0,0-.265-.568A15.242,15.242,0,0,0,.4-24.524a12.875,12.875,0,0,0-.422,3.735" transform="translate(0.04 30.557)" fill="#fff"/>
      </g>
      <g id="Group_147" data-name="Group 147" transform="translate(8.851 28.114)">
        <path id="Path_340" data-name="Path 340" d="M-2.479-23.565c-.124.178-.815,1.185-1.049,1.12-.069-.035-.166-.3-.085-.374.276-.336.648-.612.924-.938a5.937,5.937,0,0,1,.682-5.018c1.747-2.6,4.51-3.939,6.925-5.613.108-.079.216-.172.339-.249,0,.1,0,.2-.012.3a15.068,15.068,0,0,1-1.684,6.008A11.429,11.429,0,0,1,.994-25.148a6.7,6.7,0,0,1-3.473,1.583" transform="translate(3.644 34.637)" fill="#fff"/>
      </g>
      <g id="Group_148" data-name="Group 148" transform="translate(9.931 38.405)">
        <path id="Path_341" data-name="Path 341" d="M-2.118-29.667c-.075.233-.52,1.505-.758,1.5-.089.019-.243-.23-.192-.351.212-.438.5-.824.675-1.272a7.651,7.651,0,0,1-.348-5.684C-1.656-38.741.524-40.687,2.5-43.229c.085-.129.17-.247.256-.378a1.552,1.552,0,0,1,.078.311,16.675,16.675,0,0,1-.142,6.681A14.029,14.029,0,0,1,.946-32.487a7.945,7.945,0,0,1-3.064,2.82" transform="translate(3.113 43.607)" fill="#fff"/>
      </g>
      <g id="Group_149" data-name="Group 149" transform="translate(12.849 49.382)">
        <path id="Path_342" data-name="Path 342" d="M-4.18-32.4c-.033.269-.218,1.7-.444,1.807-.08.007-.277-.164-.247-.311.1-.484.21-1.041.294-1.542-.975-.592-1.716-2.685-1.541-5.067.381-3.525,2.274-6.52,3.637-9.666.065-.15.123-.3.191-.445.05.091.085.19.127.281a17.322,17.322,0,0,1,1.2,6.594,16.269,16.269,0,0,1-.862,4.6A9.226,9.226,0,0,1-4.18-32.4" transform="translate(6.144 47.625)" fill="#fff"/>
      </g>
      <g id="Group_150" data-name="Group 150" transform="translate(7.528 72.833)">
        <path id="Path_343" data-name="Path 343" d="M-15.976-15c1.68.648,4.488.811,6.056-.767.165.08,1.025.364,1.129.429.154.1.367.152.436-.058a.26.26,0,0,0-.1-.347c-.433-.184-.894-.261-1.357-.435a14.22,14.22,0,0,0-6.514-5.15A10.8,10.8,0,0,0-22.9-21.7c-.2.043-.385.092-.584.142.962,2.769,5.284,5.769,7.506,6.563" transform="translate(23.482 22.047)" fill="#fff"/>
      </g>
      <g id="Group_151" data-name="Group 151" transform="translate(18.411 60.734)">
        <path id="Path_344" data-name="Path 344" d="M-7.257-32.722a11.6,11.6,0,0,1,.081,1.537c-.012.15.02.369-.189.332-.088,0-.195-.15-.208-.233a13.083,13.083,0,0,0-.119-1.56c-1.033-.379-2.144-2.113-2.78-4.388-.592-3.528.3-7.026.85-10.582a4.413,4.413,0,0,1,.048-.483c.065.065.119.145.185.207a16.724,16.724,0,0,1,2.889,6,16.423,16.423,0,0,1,.418,4.747,11.005,11.005,0,0,1-1.176,4.426" transform="translate(10.667 48.097)" fill="#fff"/>
      </g>
      <g id="Group_152" data-name="Group 152" transform="translate(16.264 84.242)">
        <path id="Path_345" data-name="Path 345" d="M-19.9-12.465c1.769-.025,4.06-.6,5.107-2.727.373-.025.983-.054,1.367-.111.105-.012.172-.1.184-.252.008-.1-.045-.211-.237-.261-.448-.006-.879.1-1.353.113a10.576,10.576,0,0,0-7.171-2.614,12.713,12.713,0,0,0-6.751,2.269,4.105,4.105,0,0,0-.5.358,7.9,7.9,0,0,0,3.371,2.139,14.293,14.293,0,0,0,5.98,1.085" transform="translate(29.254 18.321)" fill="#fff"/>
      </g>
      <g id="Group_153" data-name="Group 153" transform="translate(24.618 69.994)">
        <path id="Path_346" data-name="Path 346" d="M-12.9-29.967c.073.2.27.969.382,1.493.019.141.1.337-.1.383a.258.258,0,0,1-.246-.165c-.139-.482-.227-1-.419-1.48-1.076-.1-2.736-1.343-3.806-3.314-1.432-3.226-1.406-6.867-1.8-10.5-.007-.159-.049-.321-.075-.5.078.053.171.1.245.149a14.89,14.89,0,0,1,4.224,4.809A16.361,16.361,0,0,1-12.9-34.654a11.464,11.464,0,0,1,0,4.687" transform="translate(18.964 44.047)" fill="#fff"/>
      </g>
      <g id="Group_154" data-name="Group 154" transform="translate(32.526 78.083)">
        <path id="Path_347" data-name="Path 347" d="M-19.51-23.035a12.5,12.5,0,0,1,.615,1.226c.062.1.175.27.02.38a.213.213,0,0,1-.264-.063c-.266-.387-.359-.82-.652-1.2-.93.441-2.9-.434-4.364-1.82-2.144-2.465-3.016-5.716-4.33-8.914-.053-.155-.128-.285-.192-.432.08,0,.171.027.259.035a11.938,11.938,0,0,1,5.041,2.772A13.313,13.313,0,0,1-20.7-27.492a11.6,11.6,0,0,1,1.19,4.456" transform="translate(28.677 33.859)" fill="#fff"/>
      </g>
      <g id="Group_155" data-name="Group 155" transform="translate(27.923 90.585)">
        <path id="Path_348" data-name="Path 348" d="M-20.739-12.08A6.192,6.192,0,0,0-16.451-16.4c.325-.175.927-.379,1.278-.564.1-.041.133-.16.113-.306a.243.243,0,0,0-.28-.176c-.425.157-.816.381-1.3.539-2.849-.955-5.037-1.193-7.606-.241a13.565,13.565,0,0,0-5.835,4.319c-.144.182-.281.342-.406.529a7.3,7.3,0,0,0,3.739,1.042,14.189,14.189,0,0,0,6.005-.82" transform="translate(30.483 17.756)" fill="#fff"/>
      </g>
      <g id="Group_156" data-name="Group 156" transform="translate(72.845 11.131)">
        <path id="Path_349" data-name="Path 349" d="M0-171.426c15.013,1.107,28.092-8.06,36.29-22.655,3.375-6.042,5.209-13.15,6.118-20.813a53.965,53.965,0,0,0-9.251-37.032c-.026-.046-.043-.065-.06-.029a.585.585,0,0,1-.166.076c-.054.018-.066-.009-.043.056,7.673,10.763,10.83,25.934,8.487,40.091-3.263,20.225-16.806,35.872-32.708,38.848a32.95,32.95,0,0,1-8.161.58,1.618,1.618,0,0,0-.506.878" transform="translate(0 251.974)" fill="#fff"/>
      </g>
      <g id="Group_157" data-name="Group 157" transform="translate(109.316 57.302)">
        <path id="Path_350" data-name="Path 350" d="M-15.031-18.581c-1.5,1.16-3.686,2.14-5.615,1.166-.136.14-.848.805-.948.909-.123.13-.326.237-.434.083a.267.267,0,0,1,.01-.366c.374-.307.754-.618,1.177-.94a14.847,14.847,0,0,1,4.907-6.731,13.606,13.606,0,0,1,6.5-2.81c.213-.015.4-.026.605-.042a9.764,9.764,0,0,1-1.745,3.856,19.773,19.773,0,0,1-4.456,4.875" transform="translate(22.094 27.312)" fill="#fff"/>
      </g>
      <g id="Group_158" data-name="Group 158" transform="translate(98.258 12.296)">
        <path id="Path_351" data-name="Path 351" d="M-21.647-11.164c.152.1,1.089.575,1.255.4.055-.048.039-.253-.044-.286-.354-.116-.754-.231-1.09-.378a5.1,5.1,0,0,0-3.365-4.094c-1.879-.814-4.172-.675-6.558-.848a2.339,2.339,0,0,1-.369-.038,1.12,1.12,0,0,0,.1.237,10.023,10.023,0,0,0,3.295,3.982A8.286,8.286,0,0,0-25.2-10.862a6.126,6.126,0,0,0,3.551-.3" transform="translate(31.818 16.41)" fill="#fff"/>
      </g>
      <g id="Group_159" data-name="Group 159" transform="translate(97.663 0)">
        <path id="Path_352" data-name="Path 352" d="M-17.266-23.893c-.084.012-.083-.013-.205-.13-.225-.315-.423-.523-.648-.838A7.99,7.99,0,0,1-22.3-27.214a9.248,9.248,0,0,1-1.449-1.917,12.727,12.727,0,0,1-1.63-5.7,1.618,1.618,0,0,1,.01-.285c.106.073.2.149.306.227,2.327,1.56,4.678,2.561,6.3,4.97a5.124,5.124,0,0,1,.861,4.851,11.742,11.742,0,0,1,.779.977c.123.137-.061.213-.142.2" transform="translate(25.379 35.119)" fill="#fff"/>
      </g>
      <g id="Group_160" data-name="Group 160" transform="translate(102.611 19.623)">
        <path id="Path_353" data-name="Path 353" d="M-20.04-15.986c.148.128,1.006.829,1.182.7.074-.048.093-.267.012-.319-.326-.212-.731-.388-1.039-.615a4.794,4.794,0,0,0-1.728-4.206c-2.146-1.8-4.948-2.175-7.487-2.96-.129-.038-.243-.072-.356-.107a2.406,2.406,0,0,1,.062.245,12.817,12.817,0,0,0,2.836,4.806,9.536,9.536,0,0,0,3.019,2.065,6.164,6.164,0,0,0,3.5.4" transform="translate(29.456 23.497)" fill="#fff"/>
      </g>
      <g id="Group_161" data-name="Group 161" transform="translate(113.666 41.52)">
        <path id="Path_354" data-name="Path 354" d="M-13.485-21.94c-1.167,1.592-2.992,3.231-5.084,2.918-.1.165-.663.936-.747,1.059-.081.173-.255.348-.409.225a.29.29,0,0,1-.073-.347c.3-.433.625-.748.96-1.179a16.212,16.212,0,0,1,3.019-8.012,14.736,14.736,0,0,1,5.772-4.73,4.1,4.1,0,0,1,.56-.241,14.622,14.622,0,0,1-.91,4.33,22.893,22.893,0,0,1-3.088,5.979" transform="translate(19.821 32.249)" fill="#fff"/>
      </g>
      <g id="Group_162" data-name="Group 162" transform="translate(115.395 27.369)">
        <path id="Path_355" data-name="Path 355" d="M-10.807-23.295c-.747,1.808-2,3.528-4.062,3.942-.064.193-.475,1.062-.532,1.2-.041.193-.154.4-.338.335a.256.256,0,0,1-.14-.3c.183-.474.447-1.008.659-1.525a21.005,21.005,0,0,1,.562-6.8,13.884,13.884,0,0,1,4.936-7.4c.174-.133.325-.272.483-.394a14.112,14.112,0,0,1,.091,4.253,26.431,26.431,0,0,1-1.659,6.693" transform="translate(15.886 34.24)" fill="#fff"/>
      </g>
      <g id="Group_163" data-name="Group 163" transform="translate(113.882 14.62)">
        <path id="Path_356" data-name="Path 356" d="M-9.333-22.984c-.368,1.95-1.293,4.016-3.2,4.917-.029.195-.2,1.147-.213,1.279-.011.183-.075.411-.266.41-.069-.009-.181-.048-.185-.246.069-.5.212-1.243.3-1.778a15.732,15.732,0,0,1-.482-8.307,14.71,14.71,0,0,1,2.94-6.589c.128-.164.258-.328.386-.487a12.405,12.405,0,0,1,.96,4.011,25.336,25.336,0,0,1-.243,6.789" transform="translate(13.719 33.784)" fill="#fff"/>
      </g>
      <g id="Group_164" data-name="Group 164" transform="translate(108.679 3.268)">
        <path id="Path_357" data-name="Path 357" d="M-10.034-20.789c.034,1.905-.662,4.55-2.252,5.353,0,.246-.059,1.084-.082,1.261.007.2.01.405-.161.444-.07.01-.119,0-.16-.186.022-.523.084-.959.11-1.5a13.944,13.944,0,0,1-2.17-7.662,19,19,0,0,1,1.213-6.913,5.517,5.517,0,0,1,.265-.568,15.264,15.264,0,0,1,2.815,6.033,12.9,12.9,0,0,1,.422,3.735" transform="translate(14.749 30.557)" fill="#fff"/>
      </g>
      <g id="Group_165" data-name="Group 165" transform="translate(106.25 28.114)">
        <path id="Path_358" data-name="Path 358" d="M-16.459-23.565c.125.178.816,1.185,1.05,1.12.069-.035.166-.3.085-.374-.276-.336-.648-.612-.924-.938a5.939,5.939,0,0,0-.682-5.018c-1.747-2.6-4.51-3.939-6.924-5.613-.109-.079-.216-.172-.339-.249,0,.1,0,.2.012.3A15.074,15.074,0,0,0-22.5-28.324a11.422,11.422,0,0,0,2.565,3.177,6.7,6.7,0,0,0,3.473,1.583" transform="translate(24.192 34.637)" fill="#fff"/>
      </g>
      <g id="Group_166" data-name="Group 166" transform="translate(107.85 38.405)">
        <path id="Path_359" data-name="Path 359" d="M-11.119-29.667c.075.233.52,1.505.757,1.5.089.019.243-.23.192-.351-.212-.438-.5-.824-.676-1.272a7.649,7.649,0,0,0,.349-5.684c-1.085-3.263-3.265-5.209-5.244-7.751-.085-.129-.169-.247-.256-.378a1.553,1.553,0,0,0-.077.311,16.664,16.664,0,0,0,.142,6.681,14,14,0,0,0,1.749,4.128,7.943,7.943,0,0,0,3.064,2.82" transform="translate(16.344 43.607)" fill="#fff"/>
      </g>
      <g id="Group_167" data-name="Group 167" transform="translate(105.964 49.382)">
        <path id="Path_360" data-name="Path 360" d="M-6.86-32.4c.033.269.218,1.7.445,1.807.08.007.277-.164.247-.311-.1-.484-.21-1.041-.294-1.542.975-.592,1.717-2.685,1.541-5.067C-5.3-41.039-7.2-44.034-8.558-47.18c-.065-.15-.123-.3-.191-.445-.05.091-.085.19-.127.281a17.316,17.316,0,0,0-1.2,6.594,16.247,16.247,0,0,0,.862,4.6A9.225,9.225,0,0,0-6.86-32.4" transform="translate(10.083 47.625)" fill="#fff"/>
      </g>
      <g id="Group_168" data-name="Group 168" transform="translate(101.314 72.833)">
        <path id="Path_361" data-name="Path 361" d="M-16.286-15c-1.68.648-4.488.811-6.056-.767-.165.08-1.025.364-1.129.429-.154.1-.367.152-.437-.058a.261.261,0,0,1,.1-.347c.434-.184.895-.261,1.357-.435a14.22,14.22,0,0,1,6.514-5.15A10.8,10.8,0,0,1-9.364-21.7c.2.043.385.092.584.142-.962,2.769-5.284,5.769-7.506,6.563" transform="translate(23.939 22.047)" fill="#fff"/>
      </g>
      <g id="Group_169" data-name="Group 169" transform="translate(100.977 60.734)">
        <path id="Path_362" data-name="Path 362" d="M-2.558-32.722a11.6,11.6,0,0,0-.081,1.537c.012.15-.019.369.189.332.088,0,.195-.15.208-.233a13.15,13.15,0,0,1,.119-1.56c1.032-.379,2.144-2.113,2.78-4.388.592-3.528-.3-7.026-.85-10.582A4.413,4.413,0,0,0-.241-48.1c-.065.065-.119.145-.185.207a16.728,16.728,0,0,0-2.889,6,16.445,16.445,0,0,0-.418,4.747,11.015,11.015,0,0,0,1.176,4.426" transform="translate(3.76 48.097)" fill="#fff"/>
      </g>
      <g id="Group_170" data-name="Group 170" transform="translate(91.725 84.242)">
        <path id="Path_363" data-name="Path 363" d="M-14.172-12.465c-1.769-.025-4.06-.6-5.107-2.727-.373-.025-.983-.054-1.367-.111-.105-.012-.172-.1-.183-.252-.008-.1.045-.211.236-.261.448-.006.879.1,1.353.113a10.576,10.576,0,0,1,7.172-2.614,12.713,12.713,0,0,1,6.75,2.269,4.134,4.134,0,0,1,.5.358A7.9,7.9,0,0,1-8.191-13.55a14.293,14.293,0,0,1-5.98,1.085" transform="translate(20.83 18.321)" fill="#fff"/>
      </g>
      <g id="Group_171" data-name="Group 171" transform="translate(92.905 69.994)">
        <path id="Path_364" data-name="Path 364" d="M-.884-29.967c-.073.2-.27.969-.382,1.493-.019.141-.1.337.1.383a.259.259,0,0,0,.247-.165c.139-.482.227-1,.419-1.48,1.076-.1,2.736-1.343,3.806-3.314,1.432-3.226,1.406-6.867,1.8-10.5.007-.159.049-.321.075-.5-.078.053-.171.1-.246.149A14.9,14.9,0,0,0,.708-39.089a16.371,16.371,0,0,0-1.59,4.435,11.458,11.458,0,0,0,0,4.687" transform="translate(1.299 44.047)" fill="#fff"/>
      </g>
      <g id="Group_172" data-name="Group 172" transform="translate(81.593 78.083)">
        <path id="Path_365" data-name="Path 365" d="M-1.518-23.035a12.487,12.487,0,0,0-.616,1.226c-.062.1-.175.27-.019.38a.213.213,0,0,0,.265-.063c.266-.387.358-.82.651-1.2.929.441,2.9-.434,4.364-1.82,2.145-2.465,3.017-5.716,4.33-8.914.053-.155.127-.285.192-.432-.08,0-.171.027-.259.035a11.944,11.944,0,0,0-5.042,2.772A13.325,13.325,0,0,0-.329-27.492a11.606,11.606,0,0,0-1.19,4.456" transform="translate(2.232 33.859)" fill="#fff"/>
      </g>
      <g id="Group_173" data-name="Group 173" transform="translate(80.648 90.585)">
        <path id="Path_366" data-name="Path 366" d="M-12.1-12.08A6.191,6.191,0,0,1-16.385-16.4c-.325-.175-.927-.379-1.279-.564-.1-.041-.133-.16-.113-.306a.242.242,0,0,1,.28-.176c.424.157.816.381,1.3.539,2.849-.955,5.037-1.193,7.606-.241a13.566,13.566,0,0,1,5.836,4.319c.144.182.281.342.406.529A7.3,7.3,0,0,1-6.092-11.26a14.189,14.189,0,0,1-6.005-.82" transform="translate(17.781 17.756)" fill="#fff"/>
      </g>
    </g>
  </g>
</svg>
