<svg xmlns="http://www.w3.org/2000/svg" viewBox="0 0 160.661 14.638">
 <g fill="#231f20">
  <path d="M6.717 1.077l5.856 13.153 1.042.408.408-1.04L8.165.445 7.123.035z"/>
  <path d="M4.41 3.501L0 13.597l.408 1.04 1.04-.408 1.113-2.544H8.84l.79-.791-.79-.79H3.251L5.858 4.13 5.45 3.09z"/>
  <path d="M44.584 1.077l5.858 13.153 1.042.408.408-1.04L46.032.445l-1.04-.41z"/>
  <path d="M42.279 3.501l-4.41 10.1.408 1.04 1.04-.408 1.112-2.544h6.28l.788-.791-.788-.79h-5.588l2.607-5.971-.408-1.04z"/>
  <path d="M52.866 1.077l4.41 10.095 1.04.408.408-1.04-4.41-10.1-1.037-.405z"/>
  <path d="M65.439.443l-5.858 13.154.408 1.04 1.042-.408 5.856-13.152-.408-1.042z"/>
  <path d="M21.626 2.564v1.118l6.939 6.894 1.118.006.006-1.118-6.941-6.895z"/>
  <path d="M18.322.967v12.881l.79.79.79-.79V.967l-.79-.789z"/>
  <path d="M31.408.967v12.881l.79.79.79-.79V.967l-.79-.788z"/>
  <path d="M115.485 1.077l5.858 13.153 1.04.408.408-1.04L116.933.445l-1.04-.41z"/>
  <path d="M113.181 3.501l-4.41 10.1.408 1.04 1.04-.408 1.112-2.544h6.278l.79-.791-.79-.79h-5.589l2.609-5.971-.408-1.04z"/>
  <path d="M153.354 1.077l5.858 13.153 1.04.408.408-1.04L154.802.445l-1.04-.41z"/>
  <path d="M151.048 3.501l-4.408 10.1.408 1.04 1.04-.408 1.11-2.544h6.28l.79-.791-.79-.79h-5.589l2.607-5.971-.406-1.04z"/>
  <path d="M130.396 2.564l-.006 1.118 6.941 6.894 1.116.006.006-1.118-6.939-6.895z"/>
  <path d="M127.09.967v12.881l.79.79.792-.79V.967l-.792-.789z"/>
  <path d="M140.179.967v12.881l.788.79.792-.79V.967l-.792-.789z"/>
  <path d="M70.708.967v12.881l.792.79.788-.79V.967L71.5.178z"/>
  <path d="M91.963.967v12.881l.79.79.79-.79V8.786h7.06l.79-.79-.79-.791h-7.061V.967l-.79-.788z"/>
  <path d="M103.264.967v12.881l.79.79.79-.79V.967l-.79-.788z"/>
  <path d="M78.479 0l-.79.79v12.882l.79.79.79-.79V.79z"/>
  <path d="M81.95 13.057l-.79.79.79.79h5.218l.79-.79-.79-.79z"/>
 </g>
</svg>
